PathFileType	4	(X/Y/Z)	34_2_51_p0_0-550_filt_butterworth.trc
DataRate	CameraRate	NumFrames	NumMarkers	Units	OrigDataRate	OrigDataStartFrame	OrigNumFrames
60.0	60.0	5	27	m	60.0	68	550
Frame#	Time	RHip			RKnee			RAnkle			RBigToe			RSmallToe			RHeel			LHip			LKnee			LAnkle			LBigToe			LSmallToe			LHeel			Neck			Head			Nose			RShoulder			RElbow			RWrist			RThumb			RIndex			RPinky			LShoulder			LElbow			LWrist			LThumb			LIndex			LPinky			
		X1	Y1	Z1	X2	Y2	Z2	X3	Y3	Z3	X4	Y4	Z4	X5	Y5	Z5	X6	Y6	Z6	X7	Y7	Z7	X8	Y8	Z8	X9	Y9	Z9	X10	Y10	Z10	X11	Y11	Z11	X12	Y12	Z12	X13	Y13	Z13	X14	Y14	Z14	X15	Y15	Z15	X16	Y16	Z16	X17	Y17	Z17	X18	Y18	Z18	X19	Y19	Z19	X20	Y20	Z20	X21	Y21	Z21	X22	Y22	Z22	X23	Y23	Z23	X24	Y24	Z24	X25	Y25	Z25	X26	Y26	Z26	X27	Y27	Z27	
68	1.1333333333333333	0.3579329131021328	0.43963803422143327	1.0111351617789188	0.34770516475247	0.5565049045362895	1.387692837826121	0.35955675447212965	0.6583269925657755	1.732115330159554	0.34626213681992285	0.5522120759137717	1.7757766758761837	0.41735933240705725	0.5499375582583349	1.7710643894308924	0.34766622400063657	0.7427082271666045	1.797515671435495	0.17320674577762235	0.4221135306095476	1.0036680960964903	0.17076147060650815	0.5916633445212772	1.4037574410740483	0.1758970563334064	0.7319476958674579	1.7577107563929775	0.17975290017325976	0.5441045203029767	1.7649078382250523	0.1273247603492131	0.6012554762420873	1.7741341897455138	0.18647681160430857	0.7640008102367737	1.791178956125021	0.2760602680034143	0.4058248304408161	0.5418270028655029	0.2889098784912757	0.2906853345483422	0.32963502493327407	0.27119371227471856	0.2600064179891587	0.45116895082771896	0.40692888093819357	0.4009292921955216	0.6146407774740776	0.47312316664205584	0.3818091480251117	0.8255769598715785	0.44228565723561175	0.2319980446250541	0.7179967025985604	0.41198123448512364	0.18675093329577674	0.6395896754839009	0.42038517493636	0.12319494180706664	0.6449852836671875	0.4081657308716695	0.13360305804342493	0.6963772439632926	0.12366625435218062	0.3976717344047769	0.6024265877525449	0.12025982379944106	0.3285687586495241	0.777355810699405	0.14996099480901057	0.053695503446117177	0.6937468413723328	0.1662557306375394	-0.09686486103880268	0.6349260539628334	0.09278017221141828	0.13782331182018837	0.6519629354103417	0.13897384895364623	-0.05257086584999731	0.6758686322444888
69	1.15	0.35790016354907894	0.439154968810287	1.0120867589853075	0.3477003839540143	0.5565487265631467	1.3876786784661101	0.35954660386397785	0.6583337725412053	1.7321245459519696	0.3463146547113307	0.5523182838395286	1.7758570863181313	0.4172811596586933	0.5503209411789648	1.7712337091441777	0.34767941932054414	0.7427002061547097	1.7975183613877128	0.17300706081880887	0.421405784093466	1.0029125972509072	0.17053799678445494	0.5921372499704982	1.4041652481477653	0.1759030240179807	0.7319678608433622	1.7577198126666487	0.17973084015560498	0.5441975226908696	1.764998677419303	0.12726398213221082	0.6009566422060024	1.7740102020666912	0.1864819597787964	0.7640109771857976	1.7911774770276798	0.27615215506147955	0.4062470357401824	0.5428675528089791	0.2890382456061544	0.2907820357246777	0.3296391714115803	0.27113394392778156	0.25999440316662104	0.4511499146653498	0.40736549734151684	0.40168954528669404	0.6143465546550358	0.47549960940519176	0.3736091686088675	0.8264774238921667	0.4427642780551446	0.23269584526654682	0.7127369320598409	0.4111272427676264	0.19069708413745629	0.6295150922662992	0.4163482057694461	0.1427516525292152	0.6352640407642255	0.4055936890088697	0.1489615678922678	0.6884234799065214	0.12333875703836647	0.39798973730964043	0.6011706654756948	0.12613320692696095	0.29223602170855645	0.7731440118718729	0.16643895492921348	0.02100348722137274	0.6906715056784982	0.14941000178763353	-0.09080507457266777	0.624358186448631	0.10690836805640051	0.1450334825088375	0.638500819235127	0.13965797535679803	-0.04737208040551303	0.6722579021721333
70	1.1666666666666667	0.3579909680358489	0.4371524395938454	1.0132434424482801	0.3476857924487329	0.5565760706257927	1.387688167878973	0.35954092428507484	0.6583361380623798	1.7321254907115609	0.34637519184294424	0.5525231561493134	1.7759614240868964	0.4168364275407014	0.5521578019479346	1.7719716829645937	0.3475938519417912	0.742400194532002	1.7973793723904978	0.17293744233000385	0.4209047811035496	1.0028350826770591	0.1702625679713049	0.5927737215497243	1.4064077144069214	0.1759115782511908	0.7320063782273072	1.7577177838622289	0.17969389124504376	0.544249025449467	1.7650606912596554	0.12772015807958612	0.6013201185561248	1.7740221578072648	0.18650328419522527	0.7641289858112016	1.7912199079783728	0.27586904506347804	0.40378388407656124	0.5432726397019012	0.28854187884010657	0.29092355250140534	0.3296646769611204	0.271103796074272	0.2600340548260592	0.4511283062660394	0.40819622823265655	0.4005766173784196	0.6142729172651917	0.4779298994390296	0.3645791562272409	0.8256417256203235	0.4429340580642396	0.23264907079209213	0.708807055751219	0.4085869038403291	0.19689946166368563	0.6230522738710547	0.41202791533066974	0.16057751890854516	0.6279147204556126	0.4043487278797575	0.1633539050155434	0.6784238191011775	0.12313787066317046	0.3971606390219148	0.6005264639879407	0.11525839260046436	0.2891661119935429	0.7777868826731054	0.14725204339167924	0.07403891839052373	0.6904508120471436	0.12128596619218324	0.016125382566280322	0.619525024320083	0.10870662536920819	0.15164186943630661	0.6277105398782551	0.11582789053414444	0.051964525287050596	0.6684108528708451
71	1.1833333333333331	0.3581429777328411	0.4329580585491859	1.0138602964546286	0.34765921112811304	0.5565719678568419	1.3877305460392058	0.35954403568630866	0.6583433795905301	1.7321168674092091	0.34634579163600604	0.5524932800899904	1.7759567126938034	0.41581911081706924	0.5562878269412613	1.773603720637512	0.34755087595445766	0.7422445387441782	1.7972360240393364	0.17295451137715465	0.4204762380000893	1.003012764596141	0.16994096844617002	0.5933527890863912	1.4086652678837555	0.17592385472700886	0.7320455143107871	1.757702745968687	0.17968142796000308	0.5441861146536799	1.7649410589132333	0.1288742352740005	0.6019844301063804	1.774061016100222	0.18652608842759755	0.7643007335009059	1.7912837801370114	0.2759989854700804	0.3998153107187466	0.5432553916706253	0.2871633412800369	0.2910034473576612	0.3296566287274834	0.27111117470468155	0.2601482730779833	0.45108565579166426	0.4092492416510507	0.396736476639259	0.6138536513365926	0.4800481868852468	0.3563401966229312	0.8241676981662024	0.4431153434110578	0.23211188025702661	0.704648980085366	0.40426013221119966	0.20443786787195478	0.6167999938333003	0.4081187036884998	0.17140165524143125	0.6219721993916248	0.40371407455464686	0.17018855230253882	0.664768890515227	0.12307513932100274	0.39446583724997325	0.5994584075086328	0.09442890424455083	0.3171006718492692	0.7905803382214467	0.10847710277758789	0.1736114257745267	0.6900736443568594	0.10158661059370983	0.12856885696154985	0.6162972256658406	0.10301282436098294	0.1570581932613525	0.6205429892467363	0.09180401120602374	0.16144214759779807	0.6606098589013605
72	1.2	0.3582945506201267	0.42776793173526095	1.0136024137790178	0.3476269669619606	0.556543593097398	1.3878036879275468	0.3595533916066822	0.6583498771541981	1.7320934106394936	0.3459908383372692	0.5512971422150934	1.7754920097980373	0.4144878887311316	0.5616327538805758	1.7757008929385454	0.34756275206143783	0.7422240152505677	1.7971272755419054	0.17299887309471357	0.42004437753910734	1.0031936611106018	0.16970074565308116	0.5937076561078412	1.4099219126916047	0.1759369112563483	0.732059780295003	1.7576714588932805	0.17978406882372244	0.5439193434233965	1.7643166520122855	0.13037885793701154	0.6026780998406972	1.7740796919529567	0.18652078799798172	0.7643806925104117	1.7913113133773457	0.277107210639618	0.3961444319950265	0.5431614035070627	0.2850187247338603	0.290953191492993	0.3294629716606668	0.2711419187696512	0.2602923452835173	0.4510327802527072	0.4101175053644437	0.3913614795771275	0.6127699595660109	0.48159290604014215	0.35019168050549027	0.8229943147208989	0.44298306700530515	0.2321744896623314	0.6992473046976779	0.39890244823938587	0.21293044410288506	0.6086293388705608	0.40427266147841756	0.17607497985919549	0.6168698744480671	0.4016757970886594	0.1693367247812797	0.6492980221256925	0.12312487158764941	0.3906341497199682	0.5974283975612744	0.07615578817544122	0.35588485025476096	0.8055431757867235	0.07701578870409581	0.253198568192443	0.6886428233643987	0.09522550521376164	0.18230319391622585	0.6127092291481707	0.09863360211704612	0.15876543669729054	0.6151029209475702	0.08074431253709095	0.21711817262239974	0.6489387208292428
